<svg width="28" height="26" viewBox="0 0 28 26" fill="none" xmlns="http://www.w3.org/2000/svg">
<path d="M6.36087 25.4435C6.22729 25.4435 6.0928 25.4135 5.9665 25.3535C5.653 25.2018 5.45217 24.8846 5.45217 24.5348V19.9913H2.72609C1.2231 19.9913 0 18.7682 0 17.2652V2.72609C0 1.2231 1.2231 0 2.72609 0H24.5348C26.0378 0 27.2609 1.2231 27.2609 2.72609V17.2652C27.2609 18.7682 26.0378 19.9913 24.5348 19.9913H13.495L6.9288 25.2445C6.76433 25.3762 6.56351 25.4435 6.36087 25.4435ZM2.72609 1.81739C2.22449 1.81739 1.81739 2.2254 1.81739 2.72609V17.2652C1.81739 17.7659 2.22449 18.1739 2.72609 18.1739H6.36087C6.86338 18.1739 7.26957 18.5801 7.26957 19.0826V22.6447L12.6082 18.3729C12.7699 18.2439 12.9689 18.1739 13.1761 18.1739H24.5348C25.0364 18.1739 25.4435 17.7659 25.4435 17.2652V2.72609C25.4435 2.2254 25.0364 1.81739 24.5348 1.81739H2.72609Z" fill="white"/>
<path d="M20.9002 9.08741H6.36109C5.85858 9.08741 5.45239 8.68032 5.45239 8.17872C5.45239 7.67712 5.85858 7.27002 6.36109 7.27002H20.9002C21.4027 7.27002 21.8089 7.67712 21.8089 8.17872C21.8089 8.68032 21.4027 9.08741 20.9002 9.08741Z" fill="white"/>
<path d="M13.6307 12.7219H6.36109C5.85858 12.7219 5.45239 12.3148 5.45239 11.8132C5.45239 11.3116 5.85858 10.9045 6.36109 10.9045H13.6307C14.1332 10.9045 14.5393 11.3116 14.5393 11.8132C14.5393 12.3148 14.1332 12.7219 13.6307 12.7219Z" fill="white"/>
</svg>
