<svg width="31" height="33" viewBox="0 0 31 33" fill="none" xmlns="http://www.w3.org/2000/svg">
<path d="M26.959 3.12498C26.1644 2.39443 22.9474 0.055374 15.7764 0.0233322C15.7764 0.0233322 7.32379 -0.489337 3.20321 3.2916C0.909014 5.5858 0.101559 8.93738 0.0182504 13.1028C-0.0650584 17.2618 -0.174001 25.0608 7.34302 27.1756H7.34943L7.34302 30.399C7.34302 30.399 7.29816 31.7063 8.15688 31.9691C9.19504 32.2895 9.81024 31.2962 10.8035 30.226C11.3482 29.6364 12.098 28.7777 12.6684 28.1176C17.8079 28.547 21.7619 27.5601 22.2104 27.4127C23.2486 27.0731 29.1251 26.3233 30.0799 18.5243C31.0668 10.501 29.5993 5.41918 26.959 3.12498ZM27.8306 17.9604C27.0231 24.4713 22.2617 24.8814 21.3838 25.1634C21.0121 25.2851 17.5387 26.1503 13.1682 25.8619C13.1682 25.8619 9.91277 29.7902 8.90025 30.8091C8.74004 30.9693 8.5542 31.0334 8.43244 31.0014C8.25941 30.9565 8.20815 30.7515 8.21456 30.4503C8.21456 30.0145 8.24019 25.0865 8.24019 25.0865C8.23378 25.0865 8.23378 25.0865 8.24019 25.0865C1.87668 23.3242 2.24836 16.6851 2.31886 13.2118C2.38935 9.73842 3.043 6.8867 4.98474 4.97059C8.46448 1.81768 15.6483 2.28549 15.6483 2.28549C21.7106 2.31112 24.6136 4.13751 25.2865 4.7463C27.523 6.66881 28.6637 11.2508 27.8306 17.9604Z" fill="white"/>
<path d="M18.7306 13.3336C18.5191 13.3336 18.3397 13.167 18.3268 12.9491C18.2563 11.5713 17.6091 10.8985 16.289 10.828C16.0647 10.8151 15.8917 10.6229 15.9045 10.3986C15.9173 10.1743 16.1095 10.0013 16.3338 10.0141C18.0769 10.1102 19.051 11.1099 19.1407 12.9043C19.1535 13.1286 18.9805 13.3208 18.7562 13.3272C18.7434 13.3336 18.737 13.3336 18.7306 13.3336Z" fill="white"/>
<path d="M20.8072 14.0262H20.8008C20.5765 14.0198 20.3971 13.8339 20.4035 13.6096C20.4355 12.2254 20.0382 11.1039 19.1923 10.1811C18.3528 9.25834 17.1929 8.75848 15.6613 8.64954C15.437 8.63032 15.2704 8.43806 15.2896 8.21377C15.3088 7.98948 15.5011 7.82286 15.7254 7.84209C17.4556 7.97025 18.8206 8.57264 19.7947 9.63643C20.7752 10.7066 21.2494 12.046 21.2173 13.6288C21.2109 13.8531 21.0251 14.0262 20.8072 14.0262Z" fill="white"/>
<path d="M22.9347 14.8592C22.7104 14.8592 22.531 14.6798 22.531 14.4555C22.5117 11.9755 21.8004 10.085 20.3521 8.66874C18.9231 7.27171 17.1095 6.56038 14.9755 6.54116C14.7512 6.54116 14.5718 6.35532 14.5718 6.13102C14.5718 5.90673 14.7576 5.72729 14.9755 5.72729C17.3274 5.74652 19.3268 6.53475 20.9097 8.08558C22.4989 9.6364 23.3128 11.7768 23.3384 14.4427C23.3448 14.6734 23.1654 14.8592 22.9347 14.8592C22.9411 14.8592 22.9411 14.8592 22.9347 14.8592Z" fill="white"/>
<path d="M16.3853 18.3518C16.3853 18.3518 16.9557 18.4031 17.2633 18.025L17.8592 17.2752C18.1476 16.9035 18.8461 16.6664 19.5254 17.0445C19.9035 17.256 20.5892 17.6789 21.0122 17.9929C21.4672 18.3262 22.39 19.0952 22.3964 19.1016C22.8385 19.4733 22.9411 20.018 22.6399 20.6011C22.6399 20.6011 22.6399 20.6075 22.6399 20.6139C22.3323 21.1587 21.9157 21.6713 21.3967 22.1455C21.3903 22.1455 21.3903 22.152 21.3838 22.152C20.9545 22.5108 20.5315 22.7159 20.1214 22.7607C20.0701 22.7736 20.0125 22.7736 19.9356 22.7736C19.7561 22.7736 19.5767 22.7479 19.3973 22.6903L19.3844 22.671C18.7436 22.4916 17.6798 22.043 15.9111 21.0625C14.7576 20.4281 13.8027 19.7809 12.9889 19.1336C12.5595 18.794 12.1238 18.4159 11.6752 17.9673C11.6623 17.9545 11.6431 17.9352 11.6303 17.9224C11.6175 17.9096 11.5983 17.8904 11.5854 17.8776C11.5726 17.8648 11.5534 17.8455 11.5406 17.8327C11.5278 17.8199 11.5085 17.8007 11.4957 17.7879C11.0536 17.3393 10.6691 16.9035 10.3294 16.4741C9.68216 15.6667 9.03492 14.7054 8.40049 13.5519C7.42001 11.7768 6.97142 10.713 6.79199 10.0786L6.77276 10.0658C6.71509 9.88633 6.68945 9.7069 6.68945 9.52746C6.68945 9.45056 6.68945 9.39289 6.70227 9.34162C6.75354 8.92508 6.9586 8.50853 7.31106 8.07917C7.31106 8.07276 7.31747 8.07276 7.31747 8.06635C7.79169 7.54087 8.30436 7.13073 8.84907 6.82313C8.84907 6.82313 8.85548 6.82313 8.86189 6.82313C9.43864 6.52194 9.98336 6.62447 10.3614 7.06665C10.3614 7.06665 11.1369 7.99586 11.4701 8.45086C11.7841 8.88022 12.2071 9.5595 12.4185 9.9376C12.7966 10.6169 12.5595 11.3154 12.1878 11.6038L11.4381 12.1998C11.06 12.5074 11.1112 13.0777 11.1112 13.0777C11.1112 13.0777 12.2199 17.2944 16.3853 18.3518Z" fill="white"/>
</svg>
