<svg width="31" height="31" viewBox="0 0 31 31" fill="none" xmlns="http://www.w3.org/2000/svg">
<path d="M25.7792 4.39741C22.9878 1.54724 19.1291 0 15.1884 0C6.81424 0 0.0820993 6.75899 0.164199 14.9838C0.164199 17.5897 0.903092 20.1141 2.13458 22.3942L0 30.1304L7.96363 28.0946C10.1803 29.3161 12.6433 29.8861 15.1063 29.8861C23.3983 29.8861 30.1304 23.1271 30.1304 14.9023C30.1304 10.9121 28.5705 7.16616 25.7792 4.39741ZM15.1884 27.3617C12.9717 27.3617 10.755 26.7917 8.86672 25.6516L8.37413 25.4073L3.61237 26.6288L4.84386 21.9871L4.51546 21.4985C0.903092 15.7167 2.62718 8.06193 8.53832 4.47885C14.4495 0.89577 22.0847 2.60588 25.6971 8.46909C29.3094 14.3323 27.5854 21.9056 21.6742 25.4887C19.7859 26.7102 17.4871 27.3617 15.1884 27.3617ZM22.4131 18.3226L21.51 17.9154C21.51 17.9154 20.1964 17.3454 19.3754 16.9382C19.2933 16.9382 19.2112 16.8568 19.1291 16.8568C18.8828 16.8568 18.7186 16.9382 18.5544 17.0196C18.5544 17.0196 18.4723 17.1011 17.3229 18.404C17.2408 18.5669 17.0766 18.6483 16.9125 18.6483H16.8304C16.7483 18.6483 16.5841 18.5669 16.502 18.4854L16.0915 18.3226C15.1884 17.9154 14.3674 17.4268 13.7106 16.7753C13.5464 16.6125 13.3001 16.4496 13.1359 16.2867C12.5612 15.7167 11.9865 15.0652 11.576 14.3323L11.4939 14.1694C11.4118 14.088 11.4118 14.0066 11.3297 13.8437C11.3297 13.6808 11.3297 13.518 11.4118 13.4365C11.4118 13.4365 11.7402 13.0294 11.9865 12.7851C12.1507 12.6222 12.2328 12.3779 12.397 12.215C12.5612 11.9707 12.6433 11.645 12.5612 11.4007C12.4791 10.9935 11.4939 8.79483 11.2476 8.30623C11.0834 8.06193 10.9192 7.98049 10.6729 7.89906H10.4266C10.2624 7.89906 10.0161 7.89906 9.76981 7.89906C9.60561 7.89906 9.44142 7.98049 9.27722 7.98049L9.19512 8.06193C9.03092 8.14336 8.86672 8.30623 8.70252 8.38766C8.53832 8.55053 8.45623 8.7134 8.29203 8.87626C7.71733 9.60917 7.38893 10.5049 7.38893 11.4007C7.38893 12.0522 7.55313 12.7036 7.79943 13.2737L7.88153 13.518C8.62042 15.0652 9.60561 16.4496 10.9192 17.6711L11.2476 17.9968C11.4939 18.2411 11.7402 18.404 11.9044 18.6483C13.6285 20.1141 15.5989 21.1727 17.8155 21.7428C18.0618 21.8242 18.3902 21.8242 18.6365 21.9056C18.8828 21.9056 19.2112 21.9056 19.4575 21.9056C19.868 21.9056 20.3606 21.7428 20.689 21.5799C20.9353 21.417 21.0995 21.417 21.2637 21.2542L21.4279 21.0913C21.5921 20.9284 21.7563 20.847 21.9205 20.6841C22.0847 20.5213 22.2489 20.3584 22.331 20.1955C22.4952 19.8698 22.5773 19.4626 22.6594 19.0555C22.6594 18.8926 22.6594 18.6483 22.6594 18.4854C22.6594 18.4854 22.5773 18.404 22.4131 18.3226Z" fill="white"/>
</svg>
