<svg width="411" height="405" viewBox="0 0 411 405" fill="none" xmlns="http://www.w3.org/2000/svg">
<path opacity="0.1" d="M97.7642 24.3395C84.1056 43.8938 100.12 75.5937 79.8531 90.2967C60.1253 104.616 35.8817 81.148 17.2951 93.4701C-10.2869 111.753 -5.24896 195.396 35.076 247.364C47.2043 262.986 57.338 269.074 61.8248 286.749C71.4623 324.703 37.5928 347.281 44.0337 366.053C58.5501 408.324 281.74 443.785 371.298 316.765C413.123 257.44 419.382 171.774 382.012 106.709C314.481 -10.8651 128.413 -19.5292 97.7642 24.3395Z" fill="#F4F7FA"/>
<path d="M158.696 314.293C141.131 302.735 183.688 198.792 222.06 130.057C253.572 73.6091 290.651 25.8798 301.358 31.395C309.553 35.6143 299.285 69.4795 306.717 72.1843C316.674 75.8004 337.626 15.9183 357.988 17.9346C370.535 19.1742 381.376 43.762 381.782 66.3596C382.514 107.13 349.149 134.132 276.566 204.951C183.552 295.698 167.738 320.244 158.696 314.293Z" fill="url(#paint0_linear_154_2020)"/>
<g opacity="0.3" style="mix-blend-mode:soft-light">
<path d="M188.645 247.123C198.428 217.801 197.585 199.093 215.382 180.135C230.927 163.576 240.528 168.306 258.862 149.164C279.627 127.483 272.366 116.136 289.759 99.3457C313.914 76.0322 337.141 88.9922 357.622 68.0363C364.095 61.4131 370.769 50.9106 374.026 33.3003C378.586 42.5357 381.572 54.7074 381.782 66.3555C382.514 107.126 349.149 134.128 276.566 204.947C183.552 295.698 167.738 320.244 158.696 314.297C157.324 313.393 156.317 311.923 155.649 309.957C173.282 285.973 182.95 264.192 188.645 247.123Z" fill="white"/>
</g>
<path opacity="0.2" d="M115.348 379.726C154.227 292.84 198.291 230.722 231.352 190.254C305.745 99.2025 341.956 96.3299 357.842 97.5376C379.014 99.1533 406.201 111.241 410.381 131.529C418.202 169.473 342.033 219.315 350.354 233.647C354.657 241.061 375.703 228.83 384.2 238.537C395.818 251.812 373.284 293.909 367.224 304.06C320.374 382.499 165.327 381.512 115.348 379.726Z" fill="#D8DEE8"/>
<g opacity="0.2" style="mix-blend-mode:soft-light">
<path d="M190.314 313.311C225.19 290.951 235.61 293.191 254.336 272.502C288.865 234.352 276.22 201.556 308.221 177.107C331.036 159.676 344.302 171.122 376.322 152.694C389.354 145.193 400.035 135.882 408.736 126.318C409.459 127.994 410.011 129.739 410.384 131.526C418.205 169.47 342.036 219.312 350.357 233.643C354.66 241.058 375.706 228.827 384.203 238.534C395.821 251.809 373.287 293.906 367.227 304.057C320.374 382.498 165.327 381.512 115.348 379.726C116.057 378.134 116.772 376.582 117.483 375.013C145.353 344.861 171.082 325.642 190.314 313.311Z" fill="white"/>
</g>
<path d="M104.711 299.9L106.261 310.333L77.6878 343.132L67.7899 343.667L76.3802 317.376C76.3802 317.376 81.7233 313.574 69.2638 314.512L27.449 326.148L27.6573 323.488L76.7896 303.12C76.7896 303.12 93.5262 300.836 104.711 299.9Z" fill="url(#paint1_linear_154_2020)"/>
<path d="M38.9452 310.691C32.2106 310.98 26.7055 306.578 26.7185 300.865L27.1742 94.8427C27.1872 89.125 32.7125 84.8942 39.4486 85.4091L343.04 108.59C347.738 108.948 351.529 113.089 351.516 117.824L351.048 288.401C351.035 293.132 347.224 297.149 342.526 297.356L38.9452 310.691Z" fill="#97A6B7"/>
<path d="M41.7426 310.728C35.0109 311.017 29.5073 306.617 29.5203 300.905L29.9774 94.9338C29.9889 89.2161 35.5129 84.9868 42.246 85.5002L345.697 108.671C350.393 109.029 354.183 113.17 354.17 117.903L353.701 288.447C353.688 293.177 349.877 297.192 345.18 297.399L41.7426 310.728Z" fill="url(#paint2_linear_154_2020)"/>
<g opacity="0.3" style="mix-blend-mode:multiply">
<path d="M345.697 112.689L42.2358 90.2921C38.6386 90.0274 35.7052 92.2838 35.6994 95.3358L35.3422 255.467L35.2424 300.685C35.2424 303.734 38.1569 306.085 41.7513 305.936L345.193 293.384C347.712 293.279 349.751 291.137 349.758 288.599L349.865 249.609L350.228 117.624C350.236 115.084 348.206 112.874 345.697 112.689Z" fill="#D8DEE8"/>
</g>
<path d="M41.7918 288.462C40.3916 288.506 39.2533 287.578 39.2547 286.392L39.6814 95.6181C39.6814 94.432 40.827 93.5483 42.2272 93.6495L345.688 115.501C346.17 115.544 346.619 115.766 346.947 116.122C347.275 116.478 347.459 116.943 347.463 117.427L347.029 276.886C347.026 277.365 346.839 277.824 346.506 278.169C346.174 278.514 345.722 278.719 345.244 278.74L41.7918 288.462Z" fill="url(#paint3_linear_154_2020)"/>
<g opacity="0.6" style="mix-blend-mode:soft-light">
<path d="M314.248 284.436C289.215 268.297 306.86 224.054 278.714 200.964C250.202 177.574 209.696 204.436 189.524 180.325C174.46 162.324 192.187 141.578 177.808 124.6C155.189 97.8903 96.649 131.928 69.663 105.312C65.8228 101.524 61.9478 95.8349 59.7536 86.8352L42.2518 85.4973C35.5187 84.9838 29.9947 89.2132 29.9832 94.9309L29.5261 300.902C29.5131 306.614 35.0225 311.027 41.7484 310.725L345.189 297.396C349.885 297.189 353.697 293.174 353.71 288.444V285.407C334.043 291.842 322.003 289.436 314.248 284.436Z" fill="white"/>
</g>
<path d="M296.99 299.08L297.463 303.685L323.333 319.467L327.37 316.514L312.028 302.754C312.028 302.754 309.014 301.845 313.53 300.834L328.014 300.762L326.909 299.965L308.234 297.762C308.234 297.762 301.847 298.386 296.99 299.08Z" fill="url(#paint4_linear_154_2020)"/>
<path d="M154.359 44.8961L58.203 38.0979L57.2686 36.4085L56.8607 36.3796C52.3073 36.0628 48.6001 39.3404 48.6001 43.6797V187.761C48.6001 192.112 52.303 195.64 56.8563 195.64H58.2189L58.6383 194.785L153.842 192.517C157.999 192.517 161.965 192.297 161.965 188.162V51.1852C161.965 47.0368 158.516 45.1854 154.359 44.8961Z" fill="url(#paint5_linear_154_2020)"/>
<path d="M156.132 43.1619L58.5429 36.3796C53.991 36.0628 50.2867 39.3332 50.2867 43.6841V187.766C50.2867 192.117 53.991 195.644 58.5429 195.644H156.132C157.118 195.647 158.095 195.456 159.006 195.081C159.918 194.706 160.747 194.155 161.446 193.459C162.144 192.763 162.699 191.937 163.077 191.027C163.456 190.117 163.652 189.141 163.653 188.155V51.178C163.648 47.0369 160.289 43.4497 156.132 43.1619Z" fill="url(#paint6_linear_154_2020)"/>
<path d="M155.375 68.8302L59.3673 63.2832V47.7891L155.375 53.9856V68.8302Z" fill="white"/>
<path d="M155.375 151.411L59.3673 149.475V142.644L155.375 144.864V151.411Z" fill="white"/>
<path d="M155.375 163.259L59.3673 161.843V155.01L155.375 156.714V163.259Z" fill="white"/>
<path d="M155.375 175.107L59.3673 174.208V167.377L155.375 168.562V175.107Z" fill="white"/>
<path d="M155.375 128.122L59.3673 125.169V69.3149L155.375 74.6089V128.122Z" fill="white"/>
<path d="M124.538 98.9086C124.538 107.6 117.343 114.385 108.403 114.06C99.3872 113.732 92.0277 106.31 92.0277 97.4954C92.0277 88.6809 99.3872 81.9 108.4 82.3557C117.34 82.807 124.538 90.217 124.538 98.9086Z" fill="url(#paint7_linear_154_2020)"/>
<path d="M116.451 97.3769L105.2 90.3067C104.254 89.7137 103.052 90.3198 103.052 91.393V104.556C103.058 104.805 103.128 105.049 103.254 105.264C103.38 105.48 103.559 105.66 103.774 105.787C103.989 105.914 104.232 105.985 104.482 105.992C104.731 105.999 104.979 105.943 105.2 105.828L116.451 99.736C117.363 99.2442 117.363 97.9511 116.451 97.3769Z" fill="white"/>
<path d="M336.194 222.798L289.167 219.529C286.973 219.385 285.188 220.953 285.188 223.05V263.768C285.188 265.866 286.973 267.565 289.167 267.565H336.194C337.151 267.565 338.07 267.185 338.748 266.509C339.426 265.832 339.808 264.914 339.81 263.956V226.653C339.794 225.676 339.414 224.74 338.746 224.028C338.077 223.315 337.168 222.877 336.194 222.798Z" fill="url(#paint8_linear_154_2020)"/>
<path d="M335.829 259.412L289.565 258.978V255.686L335.829 256.257V259.412Z" fill="white"/>
<path d="M335.829 253.14L289.565 251.716V224.801L335.829 227.353V253.14Z" fill="white"/>
<path d="M322.698 230.762L297.82 229.75C297.618 229.74 297.416 229.771 297.226 229.84C297.036 229.909 296.862 230.016 296.713 230.153C296.566 230.288 296.449 230.451 296.368 230.633C296.287 230.815 296.245 231.012 296.243 231.211L296.068 246.862C296.065 247.129 296.117 247.392 296.221 247.637C296.325 247.882 296.479 248.103 296.673 248.286C297.041 248.64 297.531 248.84 298.043 248.846H298.129L322.554 248.639C323.045 248.624 323.511 248.42 323.856 248.07C324.2 247.719 324.396 247.25 324.402 246.758L324.569 232.744C324.575 232.236 324.383 231.745 324.034 231.375C323.685 231.005 323.206 230.786 322.698 230.762ZM322.801 233.077L313.927 240.773C313.355 241.271 312.619 241.539 311.86 241.524C311.22 241.51 310.6 241.301 310.083 240.923L298.338 232.42C298.291 232.387 298.251 232.345 298.221 232.296C298.191 232.247 298.171 232.193 298.161 232.137C298.152 232.08 298.154 232.023 298.167 231.967C298.18 231.911 298.204 231.859 298.238 231.812C298.309 231.72 298.414 231.66 298.53 231.643C298.645 231.627 298.763 231.657 298.857 231.726L310.59 240.233C310.995 240.533 311.49 240.685 311.993 240.666C312.496 240.646 312.978 240.456 313.359 240.126L322.243 232.431C322.329 232.36 322.439 232.326 322.55 232.335C322.661 232.345 322.764 232.397 322.837 232.481C322.91 232.566 322.947 232.675 322.94 232.786C322.934 232.897 322.884 233.002 322.801 233.077Z" fill="url(#paint9_linear_154_2020)"/>
<path d="M272.166 74.8416L185.492 68.8259C181.442 68.5453 178.213 71.4454 178.281 75.3059L179.602 150.264C179.67 154.123 183.011 157.253 187.049 157.253H273.618C274.488 157.259 275.35 157.09 276.153 156.757C276.957 156.424 277.685 155.933 278.296 155.314C278.906 154.694 279.386 153.959 279.708 153.15C280.029 152.342 280.186 151.478 280.168 150.608L278.958 81.9493C278.893 78.2797 275.857 75.0991 272.166 74.8416Z" fill="#D8DEE8"/>
<path d="M272.478 130.698L187.266 128.077L186.394 78.5312L271.642 83.2278L272.478 130.698Z" fill="white"/>
<path d="M237.094 97.4423C237.002 97.4424 236.912 97.4078 236.844 97.3455C236.775 97.2832 236.733 97.1975 236.724 97.1053C236.397 93.6773 235.278 90.4199 233.577 87.9335C232.068 85.7306 230.272 84.4158 228.772 84.4158C223.306 84.4259 222.163 96.9751 222.151 97.101C222.141 97.198 222.093 97.2871 222.018 97.3491C221.942 97.4112 221.846 97.4413 221.748 97.4329C221.651 97.4246 221.561 97.3785 221.497 97.3046C221.434 97.2306 221.402 97.1347 221.408 97.0373C221.456 96.492 222.626 83.681 228.77 83.6694H228.777C230.549 83.6694 232.525 85.0696 234.197 87.5112C235.97 90.1003 237.133 93.482 237.472 97.0344C237.477 97.0832 237.472 97.1324 237.457 97.1792C237.443 97.2261 237.42 97.2696 237.389 97.3074C237.357 97.3452 237.319 97.3764 237.276 97.3993C237.232 97.4222 237.185 97.4364 237.136 97.4409L237.094 97.4423Z" fill="url(#paint10_linear_154_2020)"/>
<path d="M214.325 123.269L221.519 126.912L225.879 113.534L218.7 95.6064L216.663 96.1055L213.572 121.864C213.54 122.147 213.594 122.433 213.729 122.684C213.863 122.935 214.071 123.139 214.325 123.269Z" fill="url(#paint11_linear_154_2020)"/>
<path opacity="0.3" d="M225.879 113.533L218.7 95.6064L217.498 95.8957C217.361 97.827 217.368 99.7657 217.518 101.696C218 107.801 219.6 109.507 218.82 113.761C218.176 117.303 216.769 117.783 216.892 120.167C217.027 122.762 218.836 124.94 220.988 126.644L221.519 126.913L225.879 113.533Z" fill="url(#paint12_linear_154_2020)" style="mix-blend-mode:multiply"/>
<path d="M218.696 95.5991H245.523L254.402 124.261L221.519 126.911L218.696 95.5991Z" fill="url(#paint13_linear_154_2020)"/>
<path d="M228.051 98.1117C228.051 98.318 227.99 98.5196 227.875 98.6911C227.761 98.8626 227.598 98.9963 227.407 99.0752C227.217 99.1542 227.007 99.1748 226.805 99.1346C226.603 99.0943 226.417 98.995 226.271 98.8492C226.125 98.7033 226.026 98.5175 225.986 98.3152C225.945 98.1129 225.966 97.9032 226.045 97.7126C226.124 97.5221 226.257 97.3592 226.429 97.2446C226.6 97.13 226.802 97.0688 227.008 97.0688C227.145 97.0687 227.281 97.0955 227.408 97.1478C227.534 97.2002 227.649 97.277 227.746 97.3739C227.843 97.4708 227.92 97.5858 227.972 97.7124C228.025 97.839 228.051 97.9747 228.051 98.1117Z" fill="url(#paint14_linear_154_2020)"/>
<path d="M227.007 98.0554C226.923 98.0552 226.841 98.0266 226.775 97.9741C226.709 97.9215 226.663 97.8482 226.644 97.7661C226.567 97.4421 224.804 89.7615 227.291 85.9921C227.618 85.4757 228.05 85.0342 228.56 84.6969C229.07 84.3596 229.645 84.1341 230.248 84.0351C236.672 82.904 240.628 96.703 240.793 97.2902C240.82 97.3861 240.807 97.4888 240.758 97.5756C240.71 97.6624 240.628 97.7262 240.532 97.7531C240.437 97.7799 240.334 97.7676 240.247 97.7187C240.16 97.6699 240.096 97.5886 240.07 97.4927C240.032 97.3553 236.138 83.7516 230.379 84.7714C229.876 84.8522 229.396 85.04 228.971 85.3223C228.547 85.6045 228.189 85.9745 227.92 86.4073C225.605 89.9105 227.36 97.5245 227.377 97.6012C227.4 97.6975 227.383 97.7988 227.331 97.8829C227.279 97.9669 227.196 98.0269 227.1 98.0496C227.069 98.0548 227.038 98.0568 227.007 98.0554Z" fill="url(#paint15_linear_154_2020)"/>
<g style="mix-blend-mode:multiply" opacity="0.3">
<path opacity="0.3" d="M245.523 95.6064H232.216C231.559 96.2747 231.093 97.0442 231.048 97.9063C230.84 101.956 240.161 103.294 241.062 108.853C241.71 112.862 237.719 117.488 234.158 119.556C230.406 121.726 227.865 120.628 225.335 123.039C224.22 124.098 223.541 125.423 223.136 126.8L254.411 124.28L245.523 95.6064Z" fill="url(#paint16_linear_154_2020)" style="mix-blend-mode:multiply"/>
</g>
<path d="M241.652 98.015C241.652 98.2213 241.591 98.4229 241.476 98.5944C241.362 98.7659 241.199 98.8996 241.008 98.9785C240.818 99.0575 240.608 99.0781 240.406 99.0379C240.203 98.9976 240.017 98.8983 239.872 98.7525C239.726 98.6066 239.626 98.4208 239.586 98.2185C239.546 98.0162 239.567 97.8065 239.646 97.616C239.725 97.4254 239.858 97.2625 240.03 97.1479C240.201 97.0333 240.403 96.9722 240.609 96.9722C240.886 96.9722 241.151 97.082 241.347 97.2776C241.542 97.4732 241.652 97.7385 241.652 98.015Z" fill="url(#paint17_linear_154_2020)"/>
<path d="M56.5656 199.534L131.695 200.283C134.897 200.315 137.521 203.051 137.564 206.396L138.405 271.433C138.448 274.786 135.891 277.519 132.682 277.54L57.4566 278.001C55.7654 278.006 54.1407 277.342 52.9363 276.155C51.7319 274.968 51.0452 273.353 51.0258 271.661L50.2867 205.83C50.2734 205.001 50.4267 204.178 50.7373 203.409C51.048 202.64 51.5097 201.942 52.0952 201.355C52.6806 200.768 53.378 200.304 54.1458 199.991C54.9137 199.678 55.7365 199.523 56.5656 199.534Z" fill="#D8DEE8"/>
<path d="M57.8038 252.706L131.773 252.01L131.219 208.707L57.2903 207.553L57.8038 252.706Z" fill="white"/>
<path d="M103.141 237.986C104.393 235.957 105.158 233.665 105.375 231.29C105.501 229.655 105.216 228.014 104.545 226.517C103.473 224.038 101.542 222.57 99.6779 221.152C98.2864 220.093 96.9716 219.094 96.0618 217.723L95.8998 217.477C95.3617 216.671 94.7542 215.758 94.6776 215.018C94.64 214.659 94.4718 214.327 94.2051 214.084C93.9384 213.842 93.5917 213.705 93.2311 213.702C92.8754 213.708 92.5362 213.853 92.2854 214.106C92.0346 214.358 91.8919 214.698 91.8874 215.054L91.089 240.583C89.8604 239.74 88.4232 239.25 86.9349 239.169C83.0859 238.949 79.8705 241.338 79.7707 244.5C79.6709 247.662 82.7272 250.41 86.5776 250.63C90.428 250.85 93.6434 248.461 93.7417 245.299L94.2624 228.6C96.3352 229.543 99.7039 231.833 100.495 236.778C100.323 237.04 100.135 237.291 99.9324 237.53C99.6776 237.809 99.5416 238.177 99.5532 238.555C99.5648 238.933 99.7232 239.292 99.9946 239.555C100.124 239.687 100.279 239.792 100.45 239.862C100.621 239.933 100.805 239.968 100.99 239.965C101.175 239.962 101.358 239.922 101.527 239.847C101.696 239.771 101.848 239.662 101.973 239.526C102.371 239.085 102.73 238.61 103.045 238.106C103.081 238.069 103.112 238.028 103.141 237.986Z" fill="url(#paint18_linear_154_2020)"/>
<path d="M298.254 158.603L159.767 151.353L158.649 149.328L158.158 149.293C152.704 148.914 148.265 152.833 148.265 158.047L145.415 268.544C145.415 273.759 149.854 277.985 155.31 277.985H156.938L157.442 276.961L294.782 270.811C299.764 270.811 304.517 270.548 304.517 265.591L307.366 166.124C307.366 161.167 303.234 158.948 298.254 158.603Z" fill="#D8DEE8"/>
<path d="M297.53 274.566C298.711 274.568 299.88 274.338 300.971 273.889C302.063 273.44 303.055 272.78 303.891 271.947C304.728 271.115 305.392 270.125 305.846 269.036C306.3 267.946 306.535 266.778 306.537 265.598L309.391 166.124C309.391 161.167 305.367 156.867 300.386 156.523L160.18 149.29C154.726 148.912 150.287 152.83 150.287 158.044L147.437 268.541C147.437 273.756 151.877 277.982 157.332 277.982L297.53 274.566Z" fill="white"/>
<path d="M296.194 263.13L160.23 266.557C158.103 266.61 156.436 264.769 156.509 262.444L159.664 162.576C159.738 160.252 161.521 158.439 163.642 158.526L299.317 164.28C301.089 164.355 302.467 166.133 302.4 168.249L299.531 259.215C299.46 261.332 297.964 263.085 296.194 263.13Z" fill="#D8DEE8"/>
<g opacity="0.48" style="mix-blend-mode:soft-light">
<path d="M266.936 237.698C255.509 230.538 246.091 238.499 237.52 229.812C232.323 224.547 235.069 220.928 228.717 213.125C221.68 204.481 216.841 207.05 209.744 199.239C200.776 189.357 205.636 182.222 197.863 175.065C188.432 166.386 177.743 173.516 168.768 165.193C164.896 161.603 162.869 156.552 161.895 151.235L152.87 150.815C151.288 150.742 149.961 152.038 149.909 153.708L146.194 271.957C146.141 273.629 147.385 274.947 148.971 274.902L303.192 270.518C303.948 270.496 304.638 270.062 305.084 269.405C293.835 268.448 287.041 264.134 282.748 259.804C274.349 251.328 276.099 243.439 266.936 237.698Z" fill="white"/>
</g>
<path d="M305.237 146.087L304.741 142.113C304.741 142.113 300.739 137.933 300.836 135.934C300.938 133.781 301.093 130.81 302.398 130.517C303.974 130.165 306.332 133.81 307.353 136.623C307.926 138.213 308.209 139.894 308.191 141.584L309.637 146.885L305.237 146.087Z" fill="white"/>
<path d="M302.424 141.206C302.424 141.206 300.12 139.627 299.741 136.759C299.362 133.89 300.449 136.832 302.633 138.043L304.812 139.255C304.812 139.255 307.144 140.448 306.642 141.348C306.14 142.248 302.424 141.206 302.424 141.206Z" fill="white"/>
<path d="M302.528 147.086C304.755 144.676 306.896 143.709 308.85 143.562C317.517 142.917 327.936 158.027 328.647 171.998C328.698 172.999 329.29 188.609 317.378 198.579C299.995 213.131 268.252 205.41 262.871 192.702C261.099 188.507 261.596 182.383 261.682 181.314C262.109 176.19 263.779 171.248 266.548 166.915C280.279 171.05 297.267 173.625 302.453 166.999C306.316 162.061 307.919 154.808 302.528 147.086Z" fill="url(#paint19_linear_154_2020)"/>
<path d="M189.811 167.014C216.733 159.329 245.338 159.865 271.953 168.553C272.9 174.905 273.847 181.258 274.794 187.612C274.878 195.949 274.492 204.284 273.637 212.578C272.598 222.653 271.887 222.773 269.787 236.967C266.363 260.11 267.299 266.239 262.459 268.812C259.312 270.487 258.25 270.244 242.527 267.971C231.984 266.448 227.529 266.066 222.118 267.601C214.748 269.69 211.27 271.3 208.3 269.834C205.455 268.427 205.241 263.509 205.162 254.948C205.039 241.74 205.352 232.783 205.405 229.573C205.639 214.847 202.205 203.435 197.808 188.82C195.576 181.399 192.905 174.118 189.811 167.014Z" fill="url(#paint20_linear_154_2020)"/>
<path d="M239.566 147.503C239.352 150.392 238.842 153.252 238.043 156.037C237.392 158.288 237.015 158.849 236.556 159.288C235.866 159.949 234.862 160.463 229.375 161.24C226.388 161.663 226.013 161.607 225.923 161.885C225.49 163.246 233.059 168.784 241.4 168.459C246.505 168.259 251.336 165.886 251.183 164.371C251.029 162.857 245.92 163.15 244.65 160.295C243.768 158.311 245.168 155.755 246.742 153.679C245.612 151.083 240.696 150.105 239.566 147.503Z" fill="url(#paint21_linear_154_2020)"/>
<path d="M249.654 151.005C251.285 149.915 252.223 147.363 251.465 145.288C250.811 143.503 249.108 142.701 248.089 142.219C245.135 140.825 240.836 140.76 238.557 143.068C237.206 144.436 237.786 148.434 237.849 149.143C237.923 149.94 238.397 150.368 238.734 151.067C239.203 152.036 239.928 153.571 241.097 156.129C241.505 155.489 241.968 154.885 242.482 154.326C243.153 153.597 243.914 152.958 244.749 152.425C246.998 151.048 248.112 152.034 249.654 151.005Z" fill="url(#paint22_linear_154_2020)"/>
<path d="M239.053 153.608C239.053 153.608 239.98 157.54 244.086 158.653C247.762 159.651 250.951 151.928 249.217 149.466C248.638 148.646 247.182 147.889 245.816 147.807C245.011 147.758 244.659 147.973 243.344 147.867C242.131 147.771 241.856 147.541 241.425 147.704C240.885 147.908 240.289 148.656 240.216 151.206C239.759 150.292 239.022 149.749 238.347 149.82C238.114 149.857 237.895 149.957 237.715 150.109C236.906 150.846 237.359 152.285 239.053 153.608Z" fill="url(#paint23_linear_154_2020)"/>
<path d="M241.422 147.176C241.552 147.361 240.809 147.815 240.466 148.699C239.802 150.415 240.9 153.121 242.676 153.924C243.728 154.398 244.241 153.86 246.1 154.285C247.005 154.496 247.872 154.848 248.669 155.327C248.589 157.43 247.417 159.154 245.815 159.594C244.091 160.067 242.488 158.87 241.823 158.38C241.376 158.047 239.942 156.986 239.588 155.256C239.219 153.454 240.384 152.839 239.721 151.479C239.388 150.794 238.797 150.344 238.484 149.13C238.416 148.87 238.368 148.604 238.34 148.336C239.598 147.689 241.233 146.907 241.422 147.176Z" fill="url(#paint24_linear_154_2020)"/>
<path d="M247.124 155.59C247.124 155.59 246.213 155.722 244.895 155.191C244.83 155.165 244.75 155.159 244.733 155.191C244.659 155.305 245.333 156.158 246.201 156.203C246.817 156.239 247.432 155.866 247.4 155.707C247.387 155.646 247.257 155.61 247.124 155.59Z" fill="url(#paint25_linear_154_2020)"/>
<path d="M198.478 229.257L202.29 229.225C202.29 229.225 206.567 225.985 208.459 226.287C210.351 226.589 213.149 228.023 213.486 228.312C213.823 228.601 212.391 230.058 211.011 229.845C209.631 229.633 206.517 230.224 205.927 231.4C205.337 232.576 202.915 233.188 202.529 232.465L197.383 233.226L198.478 229.257Z" fill="white"/>
<path d="M199.669 228.005C199.84 231.091 199.091 233.146 197.915 234.525C192.685 240.633 175.67 237.244 165.777 228.274C158.453 221.637 154.784 211.685 155.2 202.943C156.023 185.883 172.628 169.901 196.727 165.235C199.94 175.814 203.153 186.393 206.366 196.972C191.613 196.508 185.195 206.636 186.278 214.506C187.086 220.37 190.929 226.317 199.669 228.005Z" fill="url(#paint26_linear_154_2020)"/>
<path opacity="0.3" d="M256.566 260.888C248.912 257.272 249.169 250.532 242.012 247.381C231.8 242.886 220.086 251.68 218.383 249.012C216.613 246.234 230.513 238.618 228.954 230.396C227.716 223.861 218.156 224.564 213.332 215.475C208.757 206.853 213.693 199.306 209.499 196.188C207.997 195.07 205.305 194.53 200.09 196.518C203.327 207.696 205.587 217.526 205.4 229.573C205.348 232.783 205.034 241.74 205.157 254.948C205.237 263.509 205.446 268.427 208.296 269.834C211.263 271.3 214.744 269.69 222.114 267.601C227.525 266.066 231.993 264.445 242.534 265.968C258.257 268.24 259.313 270.487 262.455 268.812C264.504 267.723 265.517 265.987 266.264 262.592C263.095 262.786 259.748 262.392 256.566 260.888Z" fill="url(#paint27_linear_154_2020)" style="mix-blend-mode:multiply"/>
<path d="M258.08 249.651C258.08 257.224 251.812 263.135 244.021 262.851C236.169 262.562 229.757 256.103 229.757 248.42C229.757 240.736 236.169 234.823 244.021 235.227C251.812 235.62 258.08 242.083 258.08 249.651Z" fill="#F4F7FA"/>
<path d="M236.115 252.046C236.228 252.104 236.533 252.046 237.029 251.884C237.174 251.847 237.369 251.789 237.624 251.714C237.878 251.638 238.111 251.569 238.321 251.513C238.531 251.456 238.732 251.4 238.92 251.352C238.953 251.352 239.054 251.33 239.222 251.3C239.359 251.277 239.494 251.243 239.626 251.2C239.719 251.171 239.805 251.122 239.877 251.056C239.971 250.96 240.022 250.775 240.022 250.499C240.029 250.222 240.012 249.944 239.973 249.67C239.933 249.4 239.911 249.128 239.908 248.856C239.908 248.588 239.947 248.413 240.032 248.328C240.09 248.276 240.156 248.234 240.227 248.203C240.314 248.163 240.383 248.135 240.433 248.118C240.482 248.101 240.577 248.079 240.702 248.048L240.917 247.995C242.806 247.418 244.824 247.418 246.713 247.995L246.93 248.048C247.06 248.079 247.15 248.102 247.199 248.119C247.248 248.137 247.318 248.164 247.404 248.203C247.476 248.234 247.542 248.276 247.6 248.328C247.684 248.413 247.726 248.588 247.723 248.856C247.72 249.128 247.699 249.4 247.659 249.67C247.619 249.944 247.602 250.222 247.61 250.499C247.61 250.775 247.668 250.96 247.754 251.056C247.827 251.122 247.913 251.171 248.006 251.2C248.138 251.243 248.273 251.277 248.41 251.3C248.577 251.33 248.679 251.348 248.712 251.352C248.9 251.4 249.1 251.453 249.309 251.513C249.519 251.572 249.753 251.638 250.008 251.714C250.263 251.789 250.461 251.847 250.602 251.884C251.099 252.049 251.404 252.104 251.517 252.046C251.581 252.015 251.639 251.972 251.687 251.919C251.852 251.746 251.998 251.554 252.121 251.349C252.252 251.148 252.364 250.936 252.458 250.716C252.594 250.38 252.556 249.842 252.344 249.1C252.133 248.292 251.657 247.579 250.992 247.075C250.833 246.958 250.668 246.851 250.495 246.755C250.302 246.647 250.156 246.569 250.061 246.523C249.967 246.476 249.784 246.392 249.523 246.274C249.263 246.155 249.105 246.083 249.049 246.055C248.465 245.773 247.852 245.554 247.221 245.403C244.978 244.941 242.665 244.941 240.423 245.403C239.792 245.554 239.179 245.772 238.594 246.054C238.538 246.083 238.379 246.157 238.12 246.274C237.861 246.391 237.686 246.475 237.58 246.523C237.475 246.57 237.336 246.647 237.146 246.755C236.974 246.85 236.808 246.957 236.65 247.074C236.51 247.18 236.377 247.296 236.252 247.421C235.798 247.892 235.469 248.469 235.296 249.1C235.084 249.842 235.047 250.38 235.184 250.716C235.276 250.937 235.389 251.15 235.521 251.351C235.644 251.556 235.79 251.747 235.955 251.92C236 251.972 236.054 252.015 236.115 252.046Z" fill="url(#paint28_linear_154_2020)"/>
<path d="M225.469 249.274C225.469 256.847 219.201 262.759 211.41 262.475C203.557 262.186 197.145 255.728 197.145 248.043C197.145 240.358 203.557 234.446 211.41 234.851C219.201 235.245 225.469 241.696 225.469 249.274Z" fill="url(#paint29_linear_154_2020)"/>
<path d="M206.35 250.115C207.161 249.304 207.161 247.988 206.35 247.177C205.539 246.366 204.223 246.366 203.412 247.177C202.601 247.988 202.601 249.304 203.412 250.115C204.223 250.926 205.539 250.926 206.35 250.115Z" fill="#F4F7FA"/>
<path d="M211.154 250.844C212.301 250.844 213.231 249.914 213.231 248.767C213.231 247.62 212.301 246.69 211.154 246.69C210.007 246.69 209.077 247.62 209.077 248.767C209.077 249.914 210.007 250.844 211.154 250.844Z" fill="#F4F7FA"/>
<path d="M217.427 250.844C218.574 250.844 219.504 249.914 219.504 248.767C219.504 247.62 218.574 246.69 217.427 246.69C216.28 246.69 215.35 247.62 215.35 248.767C215.35 249.914 216.28 250.844 217.427 250.844Z" fill="#F4F7FA"/>
<path d="M105.601 343.639C146.007 331.5 187.666 328.955 228.072 316.816C229.857 316.281 231.713 316.014 233.577 316.024C237.627 316.042 245.069 316.426 252.32 318.627C255.668 319.64 257.849 316.474 260.648 317.43C260.937 317.529 262.732 318.167 263.516 319.715C264.406 321.467 263.661 323.697 261.572 325.347C237.947 336.206 213.183 346.934 187.278 357.532C176.437 361.949 165.691 366.212 155.04 370.321C152.488 371.989 145.858 375.818 136.874 375.628C128.471 375.449 122.73 371.851 117.468 368.554C112.839 365.661 107.978 362.599 105.595 357.066C103.698 352.653 101.027 345.012 105.601 343.639Z" fill="url(#paint30_linear_154_2020)"/>
<path d="M103.395 343.928L226.82 310.161C228.238 309.773 229.705 309.598 231.174 309.641C234.978 309.755 242.766 310.325 250.345 312.94C255.655 314.773 259.565 316.186 262.139 317.135C263.654 317.696 263.675 319.449 262.173 320.027C224.25 334.6 184.065 349.171 146.304 363.744C143.448 364.821 140.32 364.936 137.394 364.071C131.632 362.373 124.575 359.691 117.353 355.393C112.214 352.354 107.451 348.719 103.165 344.562C102.943 344.345 103.067 344.018 103.395 343.928Z" fill="white"/>
<path d="M138.776 340.198V341.659C138.782 341.74 138.765 341.821 138.727 341.893C138.582 342.191 138.121 342.479 137.385 342.691L133.644 343.773C132.169 344.207 130.192 344.157 129.223 343.678L125.306 341.732C124.912 341.541 124.757 341.298 124.821 341.061L124.811 339.697L126.03 340.214C126.127 340.182 126.227 340.15 126.334 340.124L130.037 339.127C131.454 338.748 133.309 338.792 134.246 339.223L137.812 340.875L138.125 340.198H138.776Z" fill="white"/>
<path d="M149.603 346.816C149.603 346.795 149.603 346.773 149.603 346.751V345.29H149.16L148.366 345.768L144.485 343.97C143.44 343.485 141.439 343.443 139.987 343.874L136.242 344.985C136.154 345.011 136.07 345.039 135.989 345.068V344.508L134.807 344.681L134.797 346.07C134.797 346.306 134.988 346.534 135.376 346.725L139.786 348.911C140.875 349.452 143.016 349.489 144.532 349.009L148.292 347.797C149.11 347.535 149.555 347.172 149.594 346.815L149.603 346.816Z" fill="white"/>
<path d="M162.593 342.626L162.561 341.359L161.847 340.925L161.196 341.64L157.481 340.072C156.407 339.619 154.444 339.583 153.077 339.991L149.908 340.931L149.849 340.95L149.759 340.329L148.622 340.474V341.822C148.582 342.084 148.787 342.346 149.26 342.558L153.618 344.509C154.739 345.011 156.829 345.049 158.247 344.592L161.42 343.571C162.217 343.322 162.612 342.969 162.593 342.626Z" fill="white"/>
<path d="M151.689 337.883V336.667L150.942 336.522L150.417 337.101L147.161 335.728C146.195 335.32 144.374 335.284 143.032 335.644L140.062 336.437L140.169 336.292L139.591 335.608L138.513 335.923L138.549 337.269C138.439 337.53 138.6 337.795 139.07 338.006L142.958 339.742C143.962 340.192 145.898 340.231 147.297 339.827L150.463 338.912C151.379 338.641 151.809 338.246 151.689 337.883Z" fill="white"/>
<path d="M160.74 351.491C159.084 350.587 156.912 349.672 155.857 349.239C154.684 348.695 152.522 348.661 151.035 349.147L147.264 350.392L145.914 350.048C145.872 350.294 145.77 350.972 145.914 351.529C145.94 351.674 146 351.811 146.091 351.927C146.233 352.078 146.404 352.201 146.593 352.287L151.605 354.772C152.837 355.382 155.159 355.426 156.708 354.867L160.484 353.502C160.642 353.441 161.707 353.01 161.695 352.421V350.963L160.74 351.491Z" fill="white"/>
<path d="M174.664 347.693L174.679 346.374L173.391 346.783L168.884 344.882C167.683 344.376 165.573 344.341 164.176 344.803L160.993 345.852V345.14L159.802 345.419V346.787C159.771 347.077 160.011 347.377 160.545 347.618L165.473 349.823C166.733 350.387 168.992 350.424 170.437 349.903L173.605 348.759C174.218 348.536 174.568 348.25 174.652 347.956C174.679 347.871 174.683 347.78 174.664 347.693Z" fill="white"/>
<path d="M174.309 337.481H173.187L172.851 337.951L169.235 336.548C168.137 336.123 166.218 336.091 164.916 336.477L162.488 337.2L162.298 336.719H161.1V338.08C161.066 338.339 161.29 338.598 161.798 338.803L166.073 340.552C167.22 341.02 169.264 341.054 170.603 340.621L173.255 339.769C173.917 339.557 174.267 339.27 174.301 338.984L174.309 337.481Z" fill="white"/>
<path d="M186.336 343.653V342.194L184.871 342.312L184.76 342.573L180.604 340.96C179.383 340.487 177.319 340.457 176.002 340.893L173.694 341.656L172.281 341.178V342.657C172.291 342.928 172.556 343.2 173.091 343.419L177.905 345.387C179.187 345.912 181.391 345.943 182.745 345.454L185.377 344.502C186.033 344.274 186.346 343.958 186.336 343.653Z" fill="white"/>
<path d="M163.432 333.264H162.098L161.918 333.711L158.896 332.538C157.905 332.153 156.116 332.121 154.846 332.464L152.363 333.131C152.342 332.937 152.3 332.787 152.218 332.787C151.984 332.787 150.952 332.587 150.952 332.587L150.97 333.928C150.902 334.171 151.09 334.417 151.566 334.612L155.396 336.179C156.428 336.601 158.328 336.634 159.647 336.252L162.304 335.483C163.046 335.269 163.42 334.968 163.428 334.673H163.442L163.432 333.264Z" fill="white"/>
<path d="M174.113 330.265H172.821L172.565 330.699L169.517 329.603C168.505 329.239 166.747 329.211 165.528 329.537L163.775 330.009C163.791 329.903 163.788 329.83 163.746 329.83C163.601 329.83 162.155 329.445 162.155 329.445V330.891H162.168C162.158 331.108 162.36 331.325 162.817 331.496L166.665 332.942C167.719 333.34 169.582 333.369 170.836 333.006L173.068 332.36C173.791 332.148 174.136 331.853 174.089 331.564H174.101L174.113 330.265Z" fill="white"/>
<path d="M214.161 332.374L214.173 331.243L213.532 330.934L213.489 331.078C212.262 329.694 209.418 328.209 205.313 326.955C197.461 324.556 187.564 323.81 182.723 325.203C182.062 325.375 181.432 325.651 180.857 326.02L180.785 325.731L179.959 325.91V327.373C179.878 328.914 182.386 330.835 187.265 332.528C195.424 335.357 206.664 336.358 211.785 334.645C213.292 334.142 214.05 333.471 214.154 332.711V332.697C214.169 332.59 214.172 332.482 214.161 332.374ZM202.361 331.587C200.365 332.222 196.085 331.861 192.889 330.796C189.766 329.755 188.898 328.443 190.864 327.851C192.829 327.26 196.884 327.588 200.033 328.586C203.258 329.607 204.337 330.958 202.355 331.587H202.361Z" fill="white"/>
<path d="M184.932 335.524H184.942V334.06H183.361C183.318 334.06 183.205 334.318 183.13 334.494L179.926 333.337C178.809 332.935 176.926 332.903 175.688 333.275L174.175 333.725L174.112 333.435L172.409 333.263V334.747H172.423C172.442 334.977 172.678 335.206 173.167 335.391L177.339 336.966C178.507 337.4 180.507 337.433 181.777 337.026L183.994 336.312C184.658 336.103 184.965 335.812 184.932 335.524Z" fill="white"/>
<path d="M196.756 338.471L195.566 338.566L195.421 338.918L191.227 337.408C189.99 336.964 187.969 336.939 186.72 337.351L185.013 337.915C184.913 337.817 184.816 337.732 184.774 337.732C184.674 337.732 183.549 337.481 183.549 337.481V338.811C183.504 339.1 183.783 339.404 184.407 339.638L188.972 341.362C190.273 341.851 192.419 341.876 193.694 341.416L195.887 340.624C196.444 340.423 196.717 340.164 196.738 339.901H196.751L196.756 338.471Z" fill="white"/>
<path d="M208.678 319.987L203.426 321.529L203.164 321.119H201.395L201.415 322.446C201.305 322.764 201.679 323.101 202.538 323.356L204.663 323.983C206.175 324.43 208.558 324.452 209.956 324.025L216.273 322.097V320.638L208.678 319.987Z" fill="white"/>
<path d="M224.782 319.188V319.133L224.759 317.791C224.759 317.791 223.424 317.868 223.346 317.791C223.268 317.714 223.057 318.08 222.99 318.196L221.322 317.762C219.825 317.374 217.586 317.369 216.303 317.745L210.275 318.056V319.514L217.88 321.602L223.942 319.754C224.461 319.594 224.732 319.395 224.774 319.187L224.782 319.188Z" fill="white"/>
<path d="M238.392 322.741L238.376 321.35L236.351 320.863L236.42 321.674L234.54 321.187C232.91 320.765 230.557 320.753 229.263 321.16L223.188 321.605V323.065L231.494 325.347L237.596 323.351C238.118 323.18 238.374 322.965 238.389 322.741H238.392Z" fill="white"/>
<path d="M221.576 323.563L217.453 324.857L217.527 324.654L216.063 324.089L214.298 324.956L214.274 326.355C214.327 326.659 214.769 326.968 215.586 327.21L217.919 327.9C219.577 328.39 222.08 328.415 223.492 327.953L229.867 325.869V324.41L221.576 323.563Z" fill="white"/>
<path d="M251.288 319.832L251.243 318.53L250.929 318.138L250.062 318.665V318.911C249.845 318.837 249.602 318.766 249.33 318.701C247.49 318.267 245.015 318.205 243.438 318.537L243.149 317.947H242.012V319.317C242.008 319.347 242.008 319.378 242.012 319.408C242.047 319.781 242.683 320.176 243.875 320.473C245.959 320.992 248.907 321.009 250.423 320.508C251.002 320.318 251.275 320.084 251.291 319.838L251.288 319.832Z" fill="white"/>
<path d="M205.313 325.496C197.461 323.096 187.564 322.351 182.723 323.744C177.766 325.17 179.577 328.405 187.266 331.072C195.426 333.903 206.666 334.904 211.788 333.191C216.773 331.519 213.623 328.034 205.313 325.496ZM192.889 329.335C189.766 328.295 188.898 326.983 190.864 326.391C192.829 325.8 196.884 326.128 200.032 327.126C203.252 328.147 204.331 329.497 202.355 330.127C200.38 330.758 196.085 330.401 192.889 329.335Z" fill="url(#paint31_linear_154_2020)"/>
<path d="M250.422 319.043C248.906 319.545 245.958 319.528 243.874 319.009C241.814 318.495 241.4 317.691 242.913 317.208C244.426 316.725 247.271 316.742 249.333 317.237C251.42 317.737 251.923 318.547 250.422 319.043Z" fill="url(#paint32_linear_154_2020)"/>
<path d="M223.941 318.299L217.879 320.147L210.273 318.059L216.302 316.289C217.585 315.911 219.824 315.918 221.321 316.306L223.476 316.863C225.01 317.261 225.228 317.906 223.941 318.299Z" fill="url(#paint33_linear_154_2020)"/>
<path d="M208.678 318.526L216.273 320.638L209.955 322.564C208.558 322.991 206.175 322.971 204.661 322.524L202.538 321.895C201.062 321.461 201.01 320.778 202.393 320.37L208.678 318.526Z" fill="url(#paint34_linear_154_2020)"/>
<path d="M237.593 321.891L231.491 323.888L223.184 321.605L229.259 319.7C230.552 319.295 232.905 319.305 234.536 319.727L236.893 320.338C238.572 320.77 238.889 321.468 237.593 321.891Z" fill="url(#paint35_linear_154_2020)"/>
<path d="M221.576 322.117L229.874 324.423L223.499 326.507C222.088 326.969 219.584 326.941 217.926 326.454L215.593 325.764C213.979 325.286 213.829 324.546 215.233 324.106L221.576 322.117Z" fill="url(#paint36_linear_154_2020)"/>
<path d="M169.522 328.139L173.379 329.526C174.467 329.918 174.34 330.538 173.078 330.903L170.846 331.549C169.592 331.911 167.729 331.882 166.675 331.484L162.827 330.038C161.78 329.641 161.999 329.025 163.298 328.678L165.532 328.078C166.747 327.747 168.509 327.774 169.522 328.139Z" fill="url(#paint37_linear_154_2020)"/>
<path d="M179.926 331.884L184.103 333.385C185.26 333.803 185.224 334.461 183.993 334.857L181.776 335.57C180.506 335.978 178.505 335.951 177.338 335.511L173.165 333.936C172.046 333.514 172.184 332.861 173.454 332.482L175.683 331.821C176.926 331.454 178.81 331.482 179.926 331.884Z" fill="url(#paint38_linear_154_2020)"/>
<path d="M195.893 339.166L193.7 339.957C192.424 340.417 190.275 340.391 188.977 339.902L184.42 338.18C183.221 337.727 183.263 337.034 184.515 336.623L186.728 335.891C187.978 335.478 189.999 335.504 191.235 335.948L195.794 337.588C197.034 338.036 197.088 338.735 195.893 339.166Z" fill="url(#paint39_linear_154_2020)"/>
<path d="M158.896 331.085L162.744 332.578C163.812 332.993 163.611 333.647 162.294 334.024L159.637 334.794C158.317 335.174 156.418 335.141 155.386 334.718L151.555 333.152C150.531 332.734 150.824 332.084 152.186 331.719L154.839 331.005C156.116 330.661 157.905 330.693 158.896 331.085Z" fill="url(#paint40_linear_154_2020)"/>
<path d="M173.261 338.309L170.609 339.162C169.27 339.596 167.226 339.561 166.079 339.093L161.803 337.343C160.706 336.894 160.918 336.204 162.26 335.806L164.916 335.018C166.218 334.632 168.137 334.662 169.235 335.089L173.522 336.751C174.668 337.196 174.559 337.892 173.261 338.309Z" fill="url(#paint41_linear_154_2020)"/>
<path d="M185.385 343.047L182.752 343.999C181.398 344.488 179.195 344.458 177.912 343.933L173.099 341.964C171.917 341.481 172.04 340.745 173.356 340.309L176.006 339.433C177.324 338.999 179.388 339.028 180.608 339.501L185.425 341.369C186.659 341.848 186.649 342.59 185.385 343.047Z" fill="url(#paint42_linear_154_2020)"/>
<path d="M147.161 334.267L151.078 335.919C152.123 336.36 151.849 337.052 150.453 337.457L147.287 338.372C145.894 338.776 143.96 338.737 142.948 338.287L139.06 336.551C138.065 336.106 138.442 335.419 139.876 335.034L143.026 334.188C144.374 333.814 146.195 333.852 147.161 334.267Z" fill="url(#paint43_linear_154_2020)"/>
<path d="M157.481 338.606L161.863 340.455C162.987 340.929 162.8 341.668 161.429 342.111L158.255 343.132C156.833 343.589 154.743 343.552 153.627 343.048L149.269 341.098C148.198 340.618 148.496 339.886 149.915 339.464L153.084 338.524C154.448 338.123 156.407 338.159 157.481 338.606Z" fill="url(#paint44_linear_154_2020)"/>
<path d="M173.612 347.3L170.444 348.444C168.998 348.966 166.74 348.93 165.48 348.364L160.554 346.158C159.397 345.641 159.603 344.857 161.002 344.392L164.184 343.344C165.581 342.881 167.692 342.91 168.892 343.422L173.835 345.508C175.044 346.021 174.957 346.814 173.612 347.3Z" fill="url(#paint45_linear_154_2020)"/>
<path d="M134.24 337.762L138.203 339.599C139.216 340.069 138.854 340.805 137.379 341.232L133.641 342.314C132.165 342.741 130.187 342.697 129.217 342.216L125.3 340.273C124.341 339.799 124.815 339.068 126.33 338.662L130.034 337.667C131.45 337.286 133.304 337.328 134.24 337.762Z" fill="url(#paint46_linear_154_2020)"/>
<path d="M144.485 342.512L148.936 344.576C150.034 345.084 149.756 345.878 148.295 346.343L144.535 347.554C143.019 348.042 140.878 347.998 139.789 347.457L135.379 345.272C134.342 344.757 134.739 343.97 136.247 343.536L139.991 342.425C141.439 341.984 143.44 342.024 144.485 342.512Z" fill="url(#paint47_linear_154_2020)"/>
<path d="M160.481 352.042L156.705 353.408C155.156 353.966 152.834 353.923 151.602 353.312L146.59 350.827C145.463 350.269 145.771 349.426 147.264 348.933L151.035 347.686C152.522 347.195 154.684 347.236 155.857 347.78L160.902 350.119C162.097 350.671 161.919 351.523 160.481 352.042Z" fill="url(#paint48_linear_154_2020)"/>
<defs>
<linearGradient id="paint0_linear_154_2020" x1="312.887" y1="3.77794" x2="203.854" y2="432.195" gradientUnits="userSpaceOnUse">
<stop stop-color="#FF9085"/>
<stop offset="1" stop-color="#FB6FBB"/>
</linearGradient>
<linearGradient id="paint1_linear_154_2020" x1="27.449" y1="321.783" x2="106.261" y2="321.783" gradientUnits="userSpaceOnUse">
<stop stop-color="#444B8C"/>
<stop offset="1" stop-color="#26264F"/>
</linearGradient>
<linearGradient id="paint2_linear_154_2020" x1="66287.2" y1="308631" x2="794966" y2="308631" gradientUnits="userSpaceOnUse">
<stop stop-color="#444B8C"/>
<stop offset="1" stop-color="#26264F"/>
</linearGradient>
<linearGradient id="paint3_linear_154_2020" x1="347.457" y1="191.052" x2="39.2562" y2="191.052" gradientUnits="userSpaceOnUse">
<stop stop-color="#FFC444"/>
<stop offset="1" stop-color="#F36F56"/>
</linearGradient>
<linearGradient id="paint4_linear_154_2020" x1="63998.2" y1="46608.8" x2="70652.6" y2="46608.8" gradientUnits="userSpaceOnUse">
<stop stop-color="#444B8C"/>
<stop offset="1" stop-color="#26264F"/>
</linearGradient>
<linearGradient id="paint5_linear_154_2020" x1="143.97" y1="40.1345" x2="11.7798" y2="298.069" gradientUnits="userSpaceOnUse">
<stop stop-color="#311944"/>
<stop offset="1" stop-color="#893976"/>
</linearGradient>
<linearGradient id="paint6_linear_154_2020" x1="146.322" y1="39.1466" x2="13.258" y2="298.786" gradientUnits="userSpaceOnUse">
<stop stop-color="#E38DDD"/>
<stop offset="1" stop-color="#9571F6"/>
</linearGradient>
<linearGradient id="paint7_linear_154_2020" x1="20776.2" y1="21630.3" x2="28082.5" y2="21630.3" gradientUnits="userSpaceOnUse">
<stop stop-color="#FF9085"/>
<stop offset="1" stop-color="#FB6FBB"/>
</linearGradient>
<linearGradient id="paint8_linear_154_2020" x1="325.737" y1="217.685" x2="280.32" y2="306.306" gradientUnits="userSpaceOnUse">
<stop stop-color="#AA80F9"/>
<stop offset="1" stop-color="#6165D7"/>
</linearGradient>
<linearGradient id="paint9_linear_154_2020" x1="57884.4" y1="27667.9" x2="55163.1" y2="31155.8" gradientUnits="userSpaceOnUse">
<stop stop-color="#E38DDD"/>
<stop offset="1" stop-color="#9571F6"/>
</linearGradient>
<linearGradient id="paint10_linear_154_2020" x1="23296.3" y1="8497.26" x2="23643.7" y2="8647.74" gradientUnits="userSpaceOnUse">
<stop stop-color="#444B8C"/>
<stop offset="1" stop-color="#26264F"/>
</linearGradient>
<linearGradient id="paint11_linear_154_2020" x1="17125.1" y1="21647.9" x2="19181.9" y2="23004.7" gradientUnits="userSpaceOnUse">
<stop stop-color="#AA80F9"/>
<stop offset="1" stop-color="#6165D7"/>
</linearGradient>
<linearGradient id="paint12_linear_154_2020" x1="12658.5" y1="21467.3" x2="14408.3" y2="22310.2" gradientUnits="userSpaceOnUse">
<stop stop-color="#AA80F9"/>
<stop offset="1" stop-color="#6165D7"/>
</linearGradient>
<linearGradient id="paint13_linear_154_2020" x1="53136.4" y1="22982.6" x2="58821.8" y2="27977.6" gradientUnits="userSpaceOnUse">
<stop stop-color="#AA80F9"/>
<stop offset="1" stop-color="#6165D7"/>
</linearGradient>
<linearGradient id="paint14_linear_154_2020" x1="3317.81" y1="1504.35" x2="3323.86" y2="1506.61" gradientUnits="userSpaceOnUse">
<stop stop-color="#444B8C"/>
<stop offset="1" stop-color="#26264F"/>
</linearGradient>
<linearGradient id="paint15_linear_154_2020" x1="22743.3" y1="8141.06" x2="22985.3" y2="9766.71" gradientUnits="userSpaceOnUse">
<stop stop-color="#444B8C"/>
<stop offset="1" stop-color="#26264F"/>
</linearGradient>
<linearGradient id="paint16_linear_154_2020" x1="46646.1" y1="22803.4" x2="52172" y2="27072" gradientUnits="userSpaceOnUse">
<stop stop-color="#AA80F9"/>
<stop offset="1" stop-color="#6165D7"/>
</linearGradient>
<linearGradient id="paint17_linear_154_2020" x1="3527.69" y1="1502.85" x2="3533.75" y2="1505.1" gradientUnits="userSpaceOnUse">
<stop stop-color="#444B8C"/>
<stop offset="1" stop-color="#26264F"/>
</linearGradient>
<linearGradient id="paint18_linear_154_2020" x1="14218.5" y1="59510.4" x2="18762.4" y2="59510.4" gradientUnits="userSpaceOnUse">
<stop stop-color="#FFC444"/>
<stop offset="1" stop-color="#F36F56"/>
</linearGradient>
<linearGradient id="paint19_linear_154_2020" x1="156213" y1="-78788.6" x2="101569" y2="-57929.2" gradientUnits="userSpaceOnUse">
<stop stop-color="#FF9085"/>
<stop offset="1" stop-color="#FB6FBB"/>
</linearGradient>
<linearGradient id="paint20_linear_154_2020" x1="-297242" y1="184879" x2="-247211" y2="101622" gradientUnits="userSpaceOnUse">
<stop stop-color="#FF9085"/>
<stop offset="1" stop-color="#FB6FBB"/>
</linearGradient>
<linearGradient id="paint21_linear_154_2020" x1="-76518.1" y1="19738.3" x2="-73800.3" y2="15105" gradientUnits="userSpaceOnUse">
<stop stop-color="#FFC444"/>
<stop offset="1" stop-color="#F36F56"/>
</linearGradient>
<linearGradient id="paint22_linear_154_2020" x1="-55549.3" y1="1877.88" x2="-53839.6" y2="-109.298" gradientUnits="userSpaceOnUse">
<stop stop-color="#444B8C"/>
<stop offset="1" stop-color="#26264F"/>
</linearGradient>
<linearGradient id="paint23_linear_154_2020" x1="-40454.6" y1="206.433" x2="-41165" y2="2782.41" gradientUnits="userSpaceOnUse">
<stop stop-color="#FFC444"/>
<stop offset="1" stop-color="#F36F56"/>
</linearGradient>
<linearGradient id="paint24_linear_154_2020" x1="-41152.9" y1="3588.59" x2="-39659.3" y2="2025.21" gradientUnits="userSpaceOnUse">
<stop stop-color="#444B8C"/>
<stop offset="1" stop-color="#26264F"/>
</linearGradient>
<linearGradient id="paint25_linear_154_2020" x1="247.02" y1="156.335" x2="245.212" y2="160.31" gradientUnits="userSpaceOnUse">
<stop stop-color="#FFC444"/>
<stop offset="1" stop-color="#F36F56"/>
</linearGradient>
<linearGradient id="paint26_linear_154_2020" x1="-193764" y1="113990" x2="-158973" y2="61388.3" gradientUnits="userSpaceOnUse">
<stop stop-color="#FF9085"/>
<stop offset="1" stop-color="#FB6FBB"/>
</linearGradient>
<linearGradient id="paint27_linear_154_2020" x1="-226085" y1="129437" x2="-193463" y2="68630.6" gradientUnits="userSpaceOnUse">
<stop stop-color="#FF9085"/>
<stop offset="1" stop-color="#FB6FBB"/>
</linearGradient>
<linearGradient id="paint28_linear_154_2020" x1="26088.7" y1="13692.5" x2="28035.5" y2="9145.61" gradientUnits="userSpaceOnUse">
<stop stop-color="#FF9085"/>
<stop offset="1" stop-color="#FB6FBB"/>
</linearGradient>
<linearGradient id="paint29_linear_154_2020" x1="29326.7" y1="52520.3" x2="49539.4" y2="44305" gradientUnits="userSpaceOnUse">
<stop stop-color="#E38DDD"/>
<stop offset="1" stop-color="#9571F6"/>
</linearGradient>
<linearGradient id="paint30_linear_154_2020" x1="114699" y1="142842" x2="293482" y2="142842" gradientUnits="userSpaceOnUse">
<stop stop-color="#444B8C"/>
<stop offset="1" stop-color="#26264F"/>
</linearGradient>
<linearGradient id="paint31_linear_154_2020" x1="29882.9" y1="27333.7" x2="48632.6" y2="5198.91" gradientUnits="userSpaceOnUse">
<stop stop-color="#444B8C"/>
<stop offset="1" stop-color="#26264F"/>
</linearGradient>
<linearGradient id="paint32_linear_154_2020" x1="8479.68" y1="6724.98" x2="12680.4" y2="936.468" gradientUnits="userSpaceOnUse">
<stop stop-color="#444B8C"/>
<stop offset="1" stop-color="#26264F"/>
</linearGradient>
<linearGradient id="paint33_linear_154_2020" x1="12712.9" y1="10419.4" x2="19591.2" y2="1277.29" gradientUnits="userSpaceOnUse">
<stop stop-color="#444B8C"/>
<stop offset="1" stop-color="#26264F"/>
</linearGradient>
<linearGradient id="paint34_linear_154_2020" x1="13003.3" y1="10915.8" x2="20275.3" y2="1479.2" gradientUnits="userSpaceOnUse">
<stop stop-color="#444B8C"/>
<stop offset="1" stop-color="#26264F"/>
</linearGradient>
<linearGradient id="paint35_linear_154_2020" x1="13627.9" y1="11503.3" x2="21148.6" y2="1836.41" gradientUnits="userSpaceOnUse">
<stop stop-color="#444B8C"/>
<stop offset="1" stop-color="#26264F"/>
</linearGradient>
<linearGradient id="paint36_linear_154_2020" x1="13949" y1="12080.1" x2="21912.5" y2="2103.48" gradientUnits="userSpaceOnUse">
<stop stop-color="#444B8C"/>
<stop offset="1" stop-color="#26264F"/>
</linearGradient>
<linearGradient id="paint37_linear_154_2020" x1="10272.6" y1="9823.62" x2="17056" y2="2056.14" gradientUnits="userSpaceOnUse">
<stop stop-color="#444B8C"/>
<stop offset="1" stop-color="#26264F"/>
</linearGradient>
<linearGradient id="paint38_linear_154_2020" x1="11003.9" y1="10848.4" x2="18400.7" y2="2667.43" gradientUnits="userSpaceOnUse">
<stop stop-color="#444B8C"/>
<stop offset="1" stop-color="#26264F"/>
</linearGradient>
<linearGradient id="paint39_linear_154_2020" x1="11855.2" y1="12056.7" x2="19951.7" y2="3412.04" gradientUnits="userSpaceOnUse">
<stop stop-color="#444B8C"/>
<stop offset="1" stop-color="#26264F"/>
</linearGradient>
<linearGradient id="paint40_linear_154_2020" x1="10683" y1="10601.5" x2="18072" y2="2451.23" gradientUnits="userSpaceOnUse">
<stop stop-color="#444B8C"/>
<stop offset="1" stop-color="#26264F"/>
</linearGradient>
<linearGradient id="paint41_linear_154_2020" x1="11553.2" y1="11864.7" x2="19704.7" y2="3214.36" gradientUnits="userSpaceOnUse">
<stop stop-color="#444B8C"/>
<stop offset="1" stop-color="#26264F"/>
</linearGradient>
<linearGradient id="paint42_linear_154_2020" x1="12581.5" y1="13380.4" x2="21614.4" y2="4163.86" gradientUnits="userSpaceOnUse">
<stop stop-color="#444B8C"/>
<stop offset="1" stop-color="#26264F"/>
</linearGradient>
<linearGradient id="paint43_linear_154_2020" x1="11242.4" y1="11600.1" x2="19397.2" y2="2952.44" gradientUnits="userSpaceOnUse">
<stop stop-color="#444B8C"/>
<stop offset="1" stop-color="#26264F"/>
</linearGradient>
<linearGradient id="paint44_linear_154_2020" x1="12166.3" y1="13031" x2="21173.3" y2="3870.17" gradientUnits="userSpaceOnUse">
<stop stop-color="#444B8C"/>
<stop offset="1" stop-color="#26264F"/>
</linearGradient>
<linearGradient id="paint45_linear_154_2020" x1="13283.2" y1="14807.5" x2="23309.9" y2="5051.94" gradientUnits="userSpaceOnUse">
<stop stop-color="#444B8C"/>
<stop offset="1" stop-color="#26264F"/>
</linearGradient>
<linearGradient id="paint46_linear_154_2020" x1="11828.9" y1="12706.1" x2="20826.2" y2="3543.42" gradientUnits="userSpaceOnUse">
<stop stop-color="#444B8C"/>
<stop offset="1" stop-color="#26264F"/>
</linearGradient>
<linearGradient id="paint47_linear_154_2020" x1="12838.8" y1="14387.2" x2="22826.3" y2="4681.39" gradientUnits="userSpaceOnUse">
<stop stop-color="#444B8C"/>
<stop offset="1" stop-color="#26264F"/>
</linearGradient>
<linearGradient id="paint48_linear_154_2020" x1="14047" y1="16440.5" x2="25186.5" y2="6121.07" gradientUnits="userSpaceOnUse">
<stop stop-color="#444B8C"/>
<stop offset="1" stop-color="#26264F"/>
</linearGradient>
</defs>
</svg>
